<svg xmlns="http://www.w3.org/2000/svg" width="253" height="253"><title>QR Code</title><desc>Hello World</desc><path d="M11 11h11v11h-11zm11 0h11v11h-11zm11 0h11v11h-11zm11 0h11v11h-11zm11 0h11v11h-11zm11 0h11v11h-11zm11 0h11v11h-11zm44 0h11v11h-11zm11 0h11v11h-11zm11 0h11v11h-11zm22 0h11v11h-11zm11 0h11v11h-11zm11 0h11v11h-11zm11 0h11v11h-11zm11 0h11v11h-11zm11 0h11v11h-11zm11 0h11v11h-11zm-220 11h11v11h-11zm66 0h11v11h-11zm22 0h11v11h-11zm11 0h11v11h-11zm11 0h11v11h-11zm22 0h11v11h-11zm22 0h11v11h-11zm66 0h11v11h-11zm-220 11h11v11h-11zm22 0h11v11h-11zm11 0h11v11h-11zm11 0h11v11h-11zm22 0h11v11h-11zm44 0h11v11h-11zm11 0h11v11h-11zm11 0h11v11h-11zm22 0h11v11h-11zm22 0h11v11h-11zm11 0h11v11h-11zm11 0h11v11h-11zm22 0h11v11h-11zm-220 11h11v11h-11zm22 0h11v11h-11zm11 0h11v11h-11zm11 0h11v11h-11zm22 0h11v11h-11zm22 0h11v11h-11zm11 0h11v11h-11zm33 0h11v11h-11zm22 0h11v11h-11zm22 0h11v11h-11zm11 0h11v11h-11zm11 0h11v11h-11zm22 0h11v11h-11zm-220 11h11v11h-11zm22 0h11v11h-11zm11 0h11v11h-11zm11 0h11v11h-11zm22 0h11v11h-11zm33 0h11v11h-11zm33 0h11v11h-11zm22 0h11v11h-11zm22 0h11v11h-11zm11 0h11v11h-11zm11 0h11v11h-11zm22 0h11v11h-11zm-220 11h11v11h-11zm66 0h11v11h-11zm22 0h11v11h-11zm33 0h11v11h-11zm33 0h11v11h-11zm66 0h11v11h-11zm-220 11h11v11h-11zm11 0h11v11h-11zm11 0h11v11h-11zm11 0h11v11h-11zm11 0h11v11h-11zm11 0h11v11h-11zm11 0h11v11h-11zm22 0h11v11h-11zm22 0h11v11h-11zm22 0h11v11h-11zm22 0h11v11h-11zm11 0h11v11h-11zm11 0h11v11h-11zm11 0h11v11h-11zm11 0h11v11h-11zm11 0h11v11h-11zm11 0h11v11h-11zm-121 11h11v11h-11zm-99 11h11v11h-11zm11 0h11v11h-11zm11 0h11v11h-11zm11 0h11v11h-11zm11 0h11v11h-11zm22 0h11v11h-11zm11 0h11v11h-11zm11 0h11v11h-11zm33 0h11v11h-11zm22 0h11v11h-11zm22 0h11v11h-11zm22 0h11v11h-11zm22 0h11v11h-11zm-209 11h11v11h-11zm22 0h11v11h-11zm22 0h11v11h-11zm33 0h11v11h-11zm11 0h11v11h-11zm11 0h11v11h-11zm11 0h11v11h-11zm11 0h11v11h-11zm11 0h11v11h-11zm11 0h11v11h-11zm11 0h11v11h-11zm11 0h11v11h-11zm11 0h11v11h-11zm11 0h11v11h-11zm11 0h11v11h-11zm22 0h11v11h-11zm-220 11h11v11h-11zm33 0h11v11h-11zm33 0h11v11h-11zm33 0h11v11h-11zm33 0h11v11h-11zm11 0h11v11h-11zm11 0h11v11h-11zm33 0h11v11h-11zm11 0h11v11h-11zm11 0h11v11h-11zm-209 11h11v11h-11zm11 0h11v11h-11zm11 0h11v11h-11zm33 0h11v11h-11zm22 0h11v11h-11zm11 0h11v11h-11zm11 0h11v11h-11zm11 0h11v11h-11zm11 0h11v11h-11zm11 0h11v11h-11zm11 0h11v11h-11zm33 0h11v11h-11zm11 0h11v11h-11zm11 0h11v11h-11zm-198 11h11v11h-11zm11 0h11v11h-11zm11 0h11v11h-11zm11 0h11v11h-11zm33 0h11v11h-11zm11 0h11v11h-11zm11 0h11v11h-11zm22 0h11v11h-11zm22 0h11v11h-11zm11 0h11v11h-11zm11 0h11v11h-11zm66 0h11v11h-11zm-132 11h11v11h-11zm22 0h11v11h-11zm22 0h11v11h-11zm55 0h11v11h-11zm-187 11h11v11h-11zm11 0h11v11h-11zm11 0h11v11h-11zm11 0h11v11h-11zm11 0h11v11h-11zm11 0h11v11h-11zm11 0h11v11h-11zm22 0h11v11h-11zm11 0h11v11h-11zm22 0h11v11h-11zm33 0h11v11h-11zm44 0h11v11h-11zm11 0h11v11h-11zm-209 11h11v11h-11zm66 0h11v11h-11zm33 0h11v11h-11zm44 0h11v11h-11zm22 0h11v11h-11zm22 0h11v11h-11zm11 0h11v11h-11zm11 0h11v11h-11zm11 0h11v11h-11zm-220 11h11v11h-11zm22 0h11v11h-11zm11 0h11v11h-11zm11 0h11v11h-11zm22 0h11v11h-11zm22 0h11v11h-11zm11 0h11v11h-11zm11 0h11v11h-11zm11 0h11v11h-11zm33 0h11v11h-11zm11 0h11v11h-11zm55 0h11v11h-11zm-220 11h11v11h-11zm22 0h11v11h-11zm11 0h11v11h-11zm11 0h11v11h-11zm22 0h11v11h-11zm22 0h11v11h-11zm11 0h11v11h-11zm11 0h11v11h-11zm22 0h11v11h-11zm11 0h11v11h-11zm11 0h11v11h-11zm11 0h11v11h-11zm11 0h11v11h-11zm11 0h11v11h-11zm-187 11h11v11h-11zm22 0h11v11h-11zm11 0h11v11h-11zm11 0h11v11h-11zm22 0h11v11h-11zm22 0h11v11h-11zm11 0h11v11h-11zm33 0h11v11h-11zm33 0h11v11h-11zm33 0h11v11h-11zm-198 11h11v11h-11zm66 0h11v11h-11zm22 0h11v11h-11zm44 0h11v11h-11zm11 0h11v11h-11zm33 0h11v11h-11zm11 0h11v11h-11zm11 0h11v11h-11zm-198 11h11v11h-11zm11 0h11v11h-11zm11 0h11v11h-11zm11 0h11v11h-11zm11 0h11v11h-11zm11 0h11v11h-11zm11 0h11v11h-11zm22 0h11v11h-11zm11 0h11v11h-11zm22 0h11v11h-11zm11 0h11v11h-11zm22 0h11v11h-11zm22 0h11v11h-11zm33 0h11v11h-11z"/></svg>